<?xml version="1.0" encoding="UTF-8" standalone="no"?>
<!-- Created with Inkscape (http://www.inkscape.org/) -->

<svg
   xmlns:dc="http://purl.org/dc/elements/1.1/"
   xmlns:cc="http://creativecommons.org/ns#"
   xmlns:rdf="http://www.w3.org/1999/02/22-rdf-syntax-ns#"
   xmlns:svg="http://www.w3.org/2000/svg"
   xmlns="http://www.w3.org/2000/svg"
   xmlns:sodipodi="http://sodipodi.sourceforge.net/DTD/sodipodi-0.dtd"
   xmlns:inkscape="http://www.inkscape.org/namespaces/inkscape"
   width="20mm"
   height="20mm"
   viewBox="0 0 0 35.433071"
   id="svg4557"
   version="1.1"
   inkscape:version="0.91 r13725"
   sodipodi:docname="icon-headshot.svg"
   inkscape:export-filename="/Users/dariusz/dev/zombieCards/assets/icon-headshot.png"
   inkscape:export-xdpi="129.53645"
   inkscape:export-ydpi="129.53645">
  <defs
     id="defs4559" />
  <sodipodi:namedview
     id="base"
     pagecolor="#ffffff"
     bordercolor="#666666"
     borderopacity="1.0"
     inkscape:pageopacity="0.0"
     inkscape:pageshadow="2"
     inkscape:zoom="0.45254834"
     inkscape:cx="301.63589"
     inkscape:cy="-449.51565"
     inkscape:document-units="px"
     inkscape:current-layer="svg4557"
     showgrid="false"
     showguides="true"
     inkscape:guide-bbox="true"
     inkscape:window-width="1359"
     inkscape:window-height="946"
     inkscape:window-x="1098"
     inkscape:window-y="571"
     inkscape:window-maximized="0" />
  <metadata
     id="metadata4562">
    <rdf:RDF>
      <cc:Work
         rdf:about="">
        <dc:format>image/svg+xml</dc:format>
        <dc:type
           rdf:resource="http://purl.org/dc/dcmitype/StillImage" />
        <dc:title></dc:title>
      </cc:Work>
    </rdf:RDF>
  </metadata>
  <g
     inkscape:label="Layer 1"
     inkscape:groupmode="layer"
     id="layer1"
     transform="translate(0,-981.49603)"
     style="display:inline">
    <g
       id="g9185"
       transform="translate(-113.28131,966.64006)">
      <path
         inkscape:connector-curvature="0"
         style="opacity:1;fill:#000000;fill-opacity:1;fill-rule:nonzero;stroke:none;stroke-width:5.8335743;stroke-linecap:round;stroke-linejoin:round;stroke-miterlimit:4;stroke-dasharray:none;stroke-dashoffset:6.83999968;stroke-opacity:1"
         d="m 148.17491,32.293768 a 15.54906,15.54906 0 0 0 -15.5491,15.54904 15.54906,15.54906 0 0 0 0.0784,1.42554 c -0.0131,0.19177 -0.0311,0.38206 -0.0413,0.57458 -0.23486,4.41326 0.25704,8.72641 2.56194,11.03134 1.13811,1.1381 2.53744,2.06514 4.09986,2.78486 a 2.7621323,2.7621323 0 0 0 -0.58002,1.69035 2.7621323,2.7621323 0 0 0 0.0139,0.25328 c -0.004,0.034 -0.006,0.0678 -0.007,0.10203 -0.0418,0.78397 0.0455,1.55059 0.45493,1.96004 1.09993,1.09993 3.56662,1.09993 4.66655,0 0.38978,-0.38976 0.49059,-1.10373 0.46342,-1.84767 -0.008,-0.21884 -0.0287,-0.43707 -0.0552,-0.65111 0.37746,0.0656 0.75716,0.12364 1.14005,0.17068 a 2.7621323,2.7621323 0 0 0 0,0.0127 2.7621323,2.7621323 0 0 0 0.0139,0.25327 c -0.004,0.034 -0.006,0.0678 -0.007,0.10205 -0.0418,0.78398 0.0454,1.55059 0.45493,1.96004 1.09993,1.09991 3.56663,1.09991 4.66652,0 0.38981,-0.38976 0.49003,-1.10374 0.46285,-1.84767 -0.006,-0.14904 -0.0218,-0.2965 -0.0363,-0.44399 0.40376,-0.0439 0.80551,-0.0965 1.20383,-0.16096 a 2.7621323,2.7621323 0 0 0 -0.006,0.13726 2.7621323,2.7621323 0 0 0 0.0139,0.25327 c -0.006,0.034 -0.006,0.0678 -0.007,0.10205 -0.0414,0.78398 0.0461,1.55059 0.45559,1.96004 1.09988,1.09991 3.56661,1.09991 4.66649,0 0.38972,-0.38976 0.48997,-1.10374 0.46279,-1.84767 -0.0152,-0.42326 -0.0749,-0.84634 -0.14388,-1.23541 a 2.8039849,2.8318867 0 0 0 -0.0297,-0.0905 2.8039849,2.8318867 0 0 0 -0.1148,-0.25874 2.8039849,2.8318867 0 0 0 -0.13974,-0.24539 2.8039849,2.8318867 0 0 0 -0.0138,-0.0195 2.7621323,2.7621323 0 0 0 -0.13786,-0.21441 c 1.64696,-0.73229 3.12069,-1.69031 4.30942,-2.879 2.19403,-2.19409 2.75906,-6.21115 2.60627,-10.39904 -0.0871,-2.38264 -0.42173,-4.76364 -0.81029,-6.95396 a 15.784665,15.941733 0 0 0 -0.16881,-0.51263 15.784665,15.941733 0 0 0 -0.64442,-1.45408 15.784665,15.941733 0 0 0 -0.78538,-1.3824 15.784665,15.941733 0 0 0 -0.0784,-0.11054 15.54906,15.54906 0 0 0 -13.43895,-7.76785 z"
         id="path16716-0" />
      <path
         id="rect7104"
         d="m 146.51419,15.549778 0,6.55274 a 28.608996,28.608996 0 0 0 -26.27539,25.98437 l -6.26367,0 0,4.40235 6.22461,0 a 28.608996,28.608996 0 0 0 26.31445,26.6289 l 0,5.91016 4.40234,0 0,-5.92578 a 28.608996,28.608996 0 0 0 26.33985,-26.61328 l 6.19726,0 0,-4.40235 -6.25586,0 a 28.608996,28.608996 0 0 0 -26.28125,-26 l 0,-6.53711 -4.40234,0 z m 4.40234,9.69141 a 25.307956,25.307956 0 0 1 23.13086,22.8457 l -3.79687,0 0,4.40235 3.82617,0 a 25.307956,25.307956 0 0 1 -23.16016,23.16992 l 0,-3.83594 -4.40234,0 0,3.81055 a 25.307956,25.307956 0 0 1 -22.85547,-23.14453 l 3.52149,0 0,-4.40235 -3.4961,0 a 25.307956,25.307956 0 0 1 22.83008,-22.8164 l 0,3.48242 4.40234,0 0,-3.51172 z"
         style="opacity:1;fill:#000000;fill-opacity:1;fill-rule:nonzero;stroke:none;stroke-width:1;stroke-linecap:round;stroke-linejoin:round;stroke-miterlimit:4;stroke-dasharray:none;stroke-dashoffset:6.83999968;stroke-opacity:1"
         inkscape:connector-curvature="0" />
    </g>
  </g>
</svg>
