<?xml version="1.0" encoding="UTF-8" standalone="no"?>
<!-- Created with Inkscape (http://www.inkscape.org/) -->

<svg
   xmlns:dc="http://purl.org/dc/elements/1.1/"
   xmlns:cc="http://creativecommons.org/ns#"
   xmlns:rdf="http://www.w3.org/1999/02/22-rdf-syntax-ns#"
   xmlns:svg="http://www.w3.org/2000/svg"
   xmlns="http://www.w3.org/2000/svg"
   xmlns:sodipodi="http://sodipodi.sourceforge.net/DTD/sodipodi-0.dtd"
   xmlns:inkscape="http://www.inkscape.org/namespaces/inkscape"
   width="20mm"
   height="20mm"
   viewBox="0 0 0 35.433071"
   id="svg4557"
   version="1.1"
   inkscape:version="0.91 r13725"
   sodipodi:docname="icon-duel.svg"
   inkscape:export-filename="/Users/dariusz/dev/zombieCards/assets/icon-headshot.png"
   inkscape:export-xdpi="129.53645"
   inkscape:export-ydpi="129.53645">
  <defs
     id="defs4559" />
  <sodipodi:namedview
     id="base"
     pagecolor="#ffffff"
     bordercolor="#666666"
     borderopacity="1.0"
     inkscape:pageopacity="0.0"
     inkscape:pageshadow="2"
     inkscape:zoom="2.56"
     inkscape:cx="22.454013"
     inkscape:cy="30.103223"
     inkscape:document-units="px"
     inkscape:current-layer="svg4557"
     showgrid="false"
     showguides="true"
     inkscape:guide-bbox="true"
     inkscape:window-width="1035"
     inkscape:window-height="785"
     inkscape:window-x="1126"
     inkscape:window-y="571"
     inkscape:window-maximized="0" />
  <metadata
     id="metadata4562">
    <rdf:RDF>
      <cc:Work
         rdf:about="">
        <dc:format>image/svg+xml</dc:format>
        <dc:type
           rdf:resource="http://purl.org/dc/dcmitype/StillImage" />
        <dc:title></dc:title>
      </cc:Work>
    </rdf:RDF>
  </metadata>
  <g
     inkscape:groupmode="layer"
     id="layer2"
     inkscape:label="backup"
     style="display:inline">
    <path
       inkscape:connector-curvature="0"
       style="display:inline;fill:#000000;fill-opacity:1;fill-rule:evenodd;stroke:#000000;stroke-width:0.48552504px;stroke-linecap:butt;stroke-linejoin:miter;stroke-opacity:1"
       d="m 11.226054,4.54647 0.79492,11.5996 15.54688,17.1504 -11.19336,13.9258 -6.70898,-5.6738 -4.13477,4.9824 8.33203,7.0469 -7.31445,8.6152 4.98047,4.0898 7.25586,-8.5429 7.82226,6.6172 4.13477,-4.9844 -7.76563,-6.5684 0.082,-0.098 1.51563,1.2442 10.85937,-11.9785 10.85743,11.9785 1.62109,-1.3301 0.082,0.096 -7.87109,6.6563 4.13672,4.9843 7.92578,-6.7051 7.33007,8.6309 4.98047,-4.0898 -7.38867,-8.7012 8.22852,-6.9609 -4.13672,-4.9825 -6.70899,5.6739 -11.1914,-13.9258 15.54687,-17.1504 0.79297,-11.5996 -10.74219,2.2129 -13.46289,16.75 -13.46289,-16.75 -10.74414,-2.2129 z m 5.16797,42.6914 1.68164,1.3789 -0.0215,0.025 -1.66016,-1.4043 z m 38.06445,0.01 -1.54492,1.3067 -0.0195,-0.023 1.56445,-1.2832 z"
       id="path7137-3" />
  </g>
</svg>
