<?xml version="1.0" encoding="UTF-8" standalone="no"?>
<!-- Created with Inkscape (http://www.inkscape.org/) -->

<svg
   xmlns:dc="http://purl.org/dc/elements/1.1/"
   xmlns:cc="http://creativecommons.org/ns#"
   xmlns:rdf="http://www.w3.org/1999/02/22-rdf-syntax-ns#"
   xmlns:svg="http://www.w3.org/2000/svg"
   xmlns="http://www.w3.org/2000/svg"
   xmlns:sodipodi="http://sodipodi.sourceforge.net/DTD/sodipodi-0.dtd"
   xmlns:inkscape="http://www.inkscape.org/namespaces/inkscape"
   width="50mm"
   height="50mm"
   viewBox="0 0 177.16536 177.16536"
   id="svg4950"
   version="1.1"
   inkscape:version="0.91 r13725"
   sodipodi:docname="nowe pikty.svg"
   inkscape:export-filename="C:\dev\zombie\assets\icon-joker.png"
   inkscape:export-xdpi="119.89"
   inkscape:export-ydpi="119.89">
  <defs
     id="defs4952" />
  <sodipodi:namedview
     id="base"
     pagecolor="#ffffff"
     bordercolor="#666666"
     borderopacity="1.0"
     inkscape:pageopacity="0.0"
     inkscape:pageshadow="2"
     inkscape:zoom="0.89464444"
     inkscape:cx="-11.532967"
     inkscape:cy="54.367841"
     inkscape:document-units="px"
     inkscape:current-layer="layer1"
     showgrid="false"
     inkscape:window-width="1920"
     inkscape:window-height="1017"
     inkscape:window-x="-8"
     inkscape:window-y="-8"
     inkscape:window-maximized="1"
     showborder="true"
     borderlayer="false"
     inkscape:showpageshadow="true" />
  <metadata
     id="metadata4955">
    <rdf:RDF>
      <cc:Work
         rdf:about="">
        <dc:format>image/svg+xml</dc:format>
        <dc:type
           rdf:resource="http://purl.org/dc/dcmitype/StillImage" />
        <dc:title></dc:title>
      </cc:Work>
    </rdf:RDF>
  </metadata>
  <g
     inkscape:label="Layer 1"
     inkscape:groupmode="layer"
     id="layer1"
     transform="translate(0,-875.19685)">
    <rect
       style="color:#000000;clip-rule:nonzero;display:inline;overflow:visible;visibility:visible;opacity:1;isolation:auto;mix-blend-mode:normal;color-interpolation:sRGB;color-interpolation-filters:linearRGB;solid-color:#000000;solid-opacity:1;fill:#000000;fill-opacity:1;fill-rule:nonzero;stroke:#ffffff;stroke-width:1.70000005;stroke-linecap:butt;stroke-linejoin:miter;stroke-miterlimit:4;stroke-dasharray:none;stroke-dashoffset:0;stroke-opacity:1;color-rendering:auto;image-rendering:auto;shape-rendering:auto;text-rendering:auto;enable-background:accumulate"
       id="rect4150"
       width="268.263"
       height="219.08145"
       x="-42.474972"
       y="1089.2484" />
    <g
       id="g4168"
       transform="matrix(0.63115722,0,0,0.63115722,204.05672,386.09726)">
      <path
         inkscape:connector-curvature="0"
         id="path5526"
         d="m 270.67745,414.28304 -13.09766,13.09766 c -13.66925,12.93951 -19.35231,15.65285 -29.88672,14.64062 -6.84395,-0.65761 -9.3219,-1.82709 -13.29297,-6.27148 -4.29058,-4.802 -4.74786,-6.29565 -3.78125,-12.35157 l 1.09961,-6.89062 -6.97461,6.69531 c -15.70606,15.07669 -15.22322,32.6969 1.17578,42.83203 l 8.82813,4.17774 -25.66992,25.66992 81.59961,81.59961 0.11132,-0.11328 0.11329,0.11328 81.5996,-81.59961 -25.66992,-25.66992 8.82813,-4.17774 c 16.399,-10.13513 16.88184,-27.75534 1.17578,-42.83203 l -6.97461,-6.69531 1.09961,6.89062 c 0.96661,6.05592 0.50933,7.54957 -3.78125,12.35157 -3.97107,4.44439 -6.44902,5.61387 -13.29297,6.27148 -10.53441,1.01223 -16.21747,-1.70111 -29.88672,-14.64062 l -13.09765,-13.09766 -0.11329,0.11328 -0.11132,-0.11328 z"
         style="fill:#000000" />
      <circle
         r="115.44927"
         cy="491.50342"
         cx="271.35455"
         id="path5528"
         style="opacity:1;fill:none;fill-opacity:1;fill-rule:nonzero;stroke:#000000;stroke-width:16.58600044;stroke-linecap:round;stroke-linejoin:round;stroke-miterlimit:4;stroke-dasharray:none;stroke-dashoffset:6.83999968;stroke-opacity:1" />
      <rect
         y="352.60742"
         x="263.79868"
         height="47.477169"
         width="17.172594"
         id="rect5532"
         style="opacity:1;fill:#000000;fill-opacity:1;fill-rule:nonzero;stroke:none;stroke-width:16.58600044;stroke-linecap:round;stroke-linejoin:round;stroke-miterlimit:4;stroke-dasharray:none;stroke-dashoffset:6.83999968;stroke-opacity:1" />
      <rect
         style="opacity:1;fill:#000000;fill-opacity:1;fill-rule:nonzero;stroke:none;stroke-width:16.58600044;stroke-linecap:round;stroke-linejoin:round;stroke-miterlimit:4;stroke-dasharray:none;stroke-dashoffset:6.83999968;stroke-opacity:1"
         id="rect5534"
         width="17.172594"
         height="47.477169"
         x="263.79868"
         y="583.93237" />
      <rect
         transform="matrix(0,-1,1,0,0,0)"
         style="opacity:1;fill:#000000;fill-opacity:1;fill-rule:nonzero;stroke:none;stroke-width:16.58600044;stroke-linecap:round;stroke-linejoin:round;stroke-miterlimit:4;stroke-dasharray:none;stroke-dashoffset:6.83999968;stroke-opacity:1"
         id="rect5536"
         width="17.172594"
         height="47.477169"
         x="-496.55417"
         y="130.96358" />
      <rect
         transform="matrix(0,-1,1,0,0,0)"
         y="362.28851"
         x="-496.55417"
         height="47.477169"
         width="17.172594"
         id="rect5538"
         style="opacity:1;fill:#000000;fill-opacity:1;fill-rule:nonzero;stroke:none;stroke-width:16.58600044;stroke-linecap:round;stroke-linejoin:round;stroke-miterlimit:4;stroke-dasharray:none;stroke-dashoffset:6.83999968;stroke-opacity:1" />
    </g>
    <g
       id="g4163"
       transform="matrix(0.71152847,0,0,0.71152847,9.9901889,35.537874)">
      <path
         style="fill:#000000"
         d="m 93.795766,852.2041 -19.2803,19.2803 c -20.12171,19.0475 -28.48741,23.04165 -43.9945,21.5516 -10.07458,-0.96802 -13.72223,-2.68955 -19.56781,-9.23188 -6.31591,-7.06874 -6.98905,-9.26745 -5.56616,-18.18202 l 1.61868,-10.14328 -10.26692,9.85577 c -23.11998,22.19352 -22.40921,48.1312 1.7308,63.05054 l 12.99537,6.14981 -37.78719,37.78719 120.11803,120.11807 0.16387,-0.1668 0.16676,0.1668 120.118024,-120.11807 -37.7872,-37.78719 12.99538,-6.14981 c 24.14001,-14.91934 24.85077,-40.85702 1.7308,-63.05054 l -10.26692,-9.85577 1.61867,10.14328 c 1.42289,8.91457 0.74976,11.11328 -5.56616,18.18202 -5.84558,6.54233 -9.49322,8.26386 -19.5678,9.23188 -15.50709,1.49005 -23.87279,-2.5041 -43.9945,-21.5516 l -19.280294,-19.2803 -0.16676,0.16675 -0.16387,-0.16675 z"
         id="path5548"
         inkscape:connector-curvature="0" />
      <path
         inkscape:connector-curvature="0"
         id="path5515"
         d="m 93.413546,1040.1896 0,-130.19658"
         style="fill:#ffffff;fill-opacity:1;fill-rule:evenodd;stroke:#ffffff;stroke-width:9;stroke-linecap:square;stroke-linejoin:bevel;stroke-miterlimit:4;stroke-dasharray:none;stroke-opacity:1" />
      <path
         inkscape:connector-curvature="0"
         id="path5517"
         d="m 42.997996,950.78605 50.89339,-48.27511 47.169504,49.48199"
         style="fill:none;fill-rule:evenodd;stroke:#ffffff;stroke-width:9.69334126;stroke-linecap:square;stroke-linejoin:bevel;stroke-miterlimit:4;stroke-dasharray:none;stroke-opacity:1" />
    </g>
    <g
       id="g4159"
       transform="translate(-205.6683,-266.02748)">
      <path
         inkscape:connector-curvature="0"
         id="path5571"
         d="m 69.910084,994.3244 0.0014,10.0622 -23.960497,0 -11.098158,18.108 0,18.9949 53.045232,-0.9269 53.045239,0.9269 0,-18.9949 -11.09816,-18.108 -23.9605,0 10e-4,-10.0622 -12.360257,0 -5.296659,0 -0.662083,0 -5.296661,0 -12.360259,0 z"
         style="fill:#000000;fill-opacity:1;fill-rule:evenodd;stroke:none;stroke-width:1px;stroke-linecap:butt;stroke-linejoin:miter;stroke-opacity:1" />
      <path
         sodipodi:nodetypes="cccccccccccc"
         style="fill:none;fill-rule:evenodd;stroke:#000000;stroke-width:7.06221437;stroke-linecap:butt;stroke-linejoin:bevel;stroke-miterlimit:4;stroke-dasharray:none;stroke-opacity:1"
         d="M 27.018197,1030.2961 3.4786935,989.99373 37.717974,991.0013 18.458377,921.47983 l 46.009034,25.18894 24.609486,-59.44591 0.488423,0 22.82601,59.44591 46.00902,-25.18894 -19.25959,69.52147 34.23929,-1.00757 -23.5395,40.30237"
         id="path5559"
         inkscape:connector-curvature="0" />
    </g>
    <g
       id="g4155"
       transform="matrix(0.50288273,0,0,0.50288273,-3.0359479,524.85274)"
       style="fill:#ffffff;stroke:#ffffff">
      <circle
         style="opacity:1;fill:none;fill-opacity:1;fill-rule:nonzero;stroke:#ffffff;stroke-width:22.90487099;stroke-linecap:round;stroke-linejoin:round;stroke-miterlimit:4;stroke-dasharray:none;stroke-dashoffset:6.83999968;stroke-opacity:1"
         id="circle5576"
         cx="182.18686"
         cy="872.82135"
         r="159.43269" />
      <path
         inkscape:transform-center-x="-8.2154629"
         transform="matrix(1.2490588,-0.58902223,0.58902223,1.2490588,-455.94556,83.044388)"
         inkscape:transform-center-y="-5.5550409"
         d="m 173.57143,818.38962 -30.32567,-61.4465 -67.810229,-9.8534 49.067949,-47.82943 -11.58338,-67.53624 60.65133,31.88629 60.65131,-31.88629 -11.58336,67.53624 49.06794,47.82942 -67.81024,9.85341 z"
         inkscape:randomized="0"
         inkscape:rounded="0"
         inkscape:flatsided="false"
         sodipodi:arg2="2.1991149"
         sodipodi:arg1="1.5707963"
         sodipodi:r2="51.593094"
         sodipodi:r1="103.18619"
         sodipodi:cy="715.20343"
         sodipodi:cx="173.57143"
         sodipodi:sides="5"
         id="path5578"
         style="opacity:1;fill:#ffffff;fill-opacity:1;fill-rule:nonzero;stroke:none;stroke-width:10;stroke-linecap:square;stroke-linejoin:bevel;stroke-miterlimit:4;stroke-dasharray:none;stroke-dashoffset:6.83999968;stroke-opacity:1"
         sodipodi:type="star" />
    </g>
  </g>
</svg>
